<?xml version="1.0" standalone="no"?>
<!DOCTYPE svg PUBLIC "-//W3C//DTD SVG 20010904//EN"
 "http://www.w3.org/TR/2001/REC-SVG-20010904/DTD/svg10.dtd">
<svg version="1.0" xmlns="http://www.w3.org/2000/svg"
 width="730.000000pt" height="730.000000pt" viewBox="0 0 730.000000 730.000000"
 preserveAspectRatio="xMidYMid meet">
<metadata>
Created by potrace 1.11, written by Peter Selinger 2001-2013
</metadata>
<g transform="translate(0.000000,730.000000) scale(0.100000,-0.100000)"
fill="#000000" stroke="none">
<path d="M1563 4888 c3 -1288 4 -1412 21 -1508 109 -648 306 -1160 599 -1560
90 -123 306 -337 427 -422 175 -124 399 -220 625 -268 144 -31 465 -39 625
-16 462 67 833 290 1138 684 276 359 488 881 598 1477 40 221 45 441 37 1793
l-6 1222 -2034 0 -2034 0 4 -1402z m4047 957 l0 -425 -2010 0 -2010 0 0 425 0
425 2010 0 2010 0 0 -425z m-2 -822 l2 -372 -304 -265 c-168 -146 -306 -266
-309 -266 -2 0 -3 10 -3 22 1 16 -10 28 -36 42 -47 26 -55 19 -97 -84 -19 -44
-37 -82 -41 -85 -4 -2 -25 5 -48 16 -23 11 -72 25 -109 31 -80 12 -97 19 -101
42 -7 36 8 61 47 78 45 18 81 68 81 111 0 56 -69 94 -121 67 -23 -13 -49 -61
-49 -93 0 -43 -15 -47 -171 -47 -277 0 -431 37 -480 116 -39 64 -12 146 61
186 54 30 277 20 465 -21 77 -16 185 -39 240 -51 78 -17 123 -21 207 -18 99 4
113 7 180 41 76 38 217 156 187 157 -10 0 -59 -17 -110 -37 -88 -35 -101 -37
-204 -37 -90 0 -148 7 -315 41 -113 23 -245 47 -295 54 -274 36 -479 -51 -501
-212 -9 -69 11 -127 65 -180 72 -73 109 -81 401 -86 144 -3 250 -9 258 -15 6
-6 12 -23 12 -38 0 -37 -15 -46 -86 -53 -119 -10 -229 -85 -253 -173 -35 -126
9 -243 124 -332 30 -24 30 -24 10 -40 -12 -10 -171 -147 -354 -307 -183 -159
-337 -291 -342 -293 -10 -4 -12 2461 -2 2471 3 4 452 6 997 5 l991 -3 3 -372z
m-2028 -1764 l0 -2132 -117 6 c-548 26 -1033 332 -1363 860 -220 353 -387 813
-470 1292 -36 212 -40 322 -40 1223 l0 882 995 0 995 0 0 -2131z m2030 937 l0
-415 -222 -194 c-123 -107 -224 -194 -226 -192 -1 1 3 146 9 322 12 352 11
363 -41 363 -56 0 -63 -20 -56 -150 3 -63 8 -225 11 -360 l6 -245 -82 -70
c-46 -38 -86 -71 -89 -73 -4 -1 -15 19 -25 45 -26 66 -92 134 -210 210 -55 36
-103 71 -107 77 -4 6 -8 52 -8 102 l0 91 109 97 c86 75 116 96 139 96 26 0 34
8 59 50 22 39 105 117 378 355 193 168 351 305 353 305 1 0 2 -186 2 -414z
m-962 97 c4 -25 -41 -77 -61 -70 -17 5 -21 65 -6 83 19 23 63 14 67 -13z
m-140 -473 l2 -125 -50 -44 -51 -43 -41 28 c-23 16 -64 49 -91 74 -44 41 -50
51 -54 96 -7 65 13 97 70 118 61 22 75 24 147 23 l65 -2 3 -125z m200 109 c29
-6 50 -14 47 -19 -3 -5 -46 -43 -95 -85 l-90 -76 0 94 c0 51 3 97 7 101 8 7
30 5 131 -15z m899 -331 c-19 -421 -187 -1019 -403 -1428 -124 -233 -259 -416
-439 -588 -275 -264 -588 -409 -977 -451 -54 -6 -115 -11 -138 -11 l-40 0 0
443 1 442 368 320 c203 176 376 321 385 323 20 4 115 -84 122 -114 3 -12 -6
-69 -21 -126 -32 -123 -44 -317 -26 -387 17 -60 50 -91 99 -91 29 0 45 7 65
28 44 46 60 98 65 212 5 123 -11 204 -59 289 -38 67 -34 87 31 151 61 62 87
69 154 42 120 -49 244 -58 351 -27 79 22 105 47 105 100 0 51 -18 77 -77 112
-42 24 -57 27 -143 28 -110 0 -177 -17 -262 -68 l-57 -35 -48 33 c-27 18 -54
40 -62 49 -11 14 -10 17 14 26 14 5 35 10 45 10 39 0 134 43 173 79 45 40 76
100 77 146 0 25 15 43 89 108 50 42 92 77 95 77 3 0 6 -18 6 -40 0 -28 5 -43
16 -47 25 -9 35 10 41 83 l6 69 221 192 c122 106 223 193 225 193 2 0 1 -64
-2 -142z m-1097 7 c0 -50 -10 -56 -49 -28 l-24 16 34 28 c19 16 35 29 37 29 1
0 2 -20 2 -45z m-76 -139 c40 -30 76 -62 80 -71 3 -9 6 -109 6 -221 0 -156 -3
-206 -13 -209 -7 -3 -46 28 -88 69 -113 111 -209 151 -267 110 -26 -18 -30
-79 -7 -123 30 -58 166 -123 288 -138 67 -8 71 -27 17 -75 -52 -46 -93 -50
-148 -13 -87 60 -218 79 -342 49 -107 -25 -161 -85 -126 -139 53 -81 285 -120
425 -70 24 8 45 14 46 13 3 -4 -674 -592 -686 -596 -5 -2 -9 166 -9 407 l0
410 43 39 c60 56 700 612 704 612 2 0 36 -25 77 -54z m232 -151 c95 -67 172
-139 180 -171 4 -17 -3 -30 -33 -57 -112 -101 -147 -126 -184 -132 -68 -12
-69 -8 -69 210 0 178 3 205 20 205 3 0 42 -25 86 -55z m-391 -226 c40 -21 135
-106 135 -121 0 -12 -123 37 -169 67 -38 25 -51 52 -34 68 11 11 26 8 68 -14z
m557 -41 c-11 -18 -40 -43 -64 -56 l-43 -24 60 56 c33 30 62 56 63 56 2 0 -5
-14 -16 -32z m-214 -275 l52 -48 -65 -68 -65 -67 -59 59 -58 60 61 55 c34 30
66 55 72 55 5 1 34 -20 62 -46z m487 6 c52 -13 78 -38 73 -71 -6 -45 -156 -73
-264 -48 -23 5 -63 19 -90 30 l-48 21 31 20 c84 53 202 72 298 48z m-955 -20
c60 -13 130 -40 130 -49 0 -34 -253 -50 -333 -22 -33 12 -38 18 -35 40 2 18
11 28 28 33 38 11 160 10 210 -2z m421 -353 c41 -94 43 -269 3 -388 -16 -49
-40 -62 -62 -35 -20 24 -35 137 -30 225 5 89 43 242 60 242 5 0 18 -20 29 -44z"/>
<path d="M3006 6100 c-42 -13 -85 -58 -97 -104 -8 -31 -7 -48 6 -83 19 -49 49
-74 153 -128 112 -58 140 -110 86 -160 -62 -58 -172 -16 -221 82 l-28 58 -3
-94 c-1 -51 0 -96 3 -99 3 -3 12 4 21 16 19 27 26 27 92 0 48 -20 58 -21 109
-10 129 27 179 154 99 249 -13 16 -65 50 -115 76 -128 68 -155 111 -99 160 56
48 162 -1 202 -93 15 -35 15 -34 15 55 0 72 -3 86 -11 68 -14 -28 -24 -28 -79
-3 -47 21 -86 24 -133 10z"/>
<path d="M4056 6100 c-42 -13 -85 -58 -97 -104 -8 -31 -7 -48 6 -83 19 -49 49
-74 153 -128 112 -58 140 -110 86 -160 -62 -58 -172 -16 -221 82 l-28 58 -3
-94 c-1 -51 0 -96 3 -99 3 -3 12 4 21 16 19 27 26 27 92 0 48 -20 58 -21 109
-10 129 27 179 154 99 249 -13 16 -65 50 -115 76 -128 68 -155 111 -99 160 56
48 162 -1 202 -93 15 -35 15 -34 15 55 0 72 -3 86 -11 68 -14 -28 -24 -28 -79
-3 -47 21 -86 24 -133 10z"/>
<path d="M3330 6093 c50 -9 50 -11 50 -253 0 -242 0 -244 -50 -253 -14 -2 36
-4 110 -4 74 -1 126 2 115 4 -41 10 -45 22 -45 129 0 56 4 105 8 108 11 7 162
-185 162 -207 0 -10 -10 -22 -22 -27 -16 -6 23 -9 117 -9 135 -1 139 0 108 15
-20 10 -79 74 -149 160 l-117 144 24 19 c13 10 67 53 119 94 52 42 103 78 115
80 11 2 -29 4 -90 4 -60 1 -96 -2 -80 -6 23 -5 30 -12 30 -31 0 -19 -25 -45
-110 -116 l-110 -92 -3 105 c-3 111 3 129 41 136 12 2 -39 4 -113 4 -74 0
-124 -2 -110 -4z"/>
<path d="M2897 4651 c-32 -28 -36 -29 -112 -25 -89 5 -101 0 -132 -56 -11 -19
-39 -46 -62 -59 -50 -27 -61 -49 -36 -67 12 -9 16 -21 12 -35 -9 -34 3 -79 22
-79 13 -1 13 -3 -3 -15 -29 -22 -119 -20 -139 3 -26 28 -20 51 20 88 l37 34
-35 0 c-44 0 -97 -27 -123 -63 -26 -35 -27 -102 -2 -139 39 -60 141 -74 225
-30 l37 20 17 -29 c11 -20 24 -29 41 -29 57 0 72 -24 36 -60 -14 -14 -33 -20
-62 -20 -36 0 -46 6 -81 43 l-39 42 3 -47 c4 -45 3 -46 -29 -52 -42 -6 -112
-58 -189 -139 -74 -79 -139 -110 -182 -86 -30 17 -40 64 -21 99 10 19 9 21 -7
18 -28 -5 -56 -73 -48 -118 9 -55 45 -85 103 -85 26 0 63 3 82 8 27 6 32 5 22
-5 -19 -19 -14 -27 21 -33 33 -6 58 -2 159 29 l47 15 -19 -32 c-11 -18 -20
-36 -20 -41 0 -18 127 2 202 32 68 26 76 27 67 11 -23 -43 51 -33 123 18 l38
26 38 -25 c20 -14 57 -35 81 -48 l44 -22 -7 29 c-4 15 -9 59 -13 97 -6 67 -6
68 16 57 25 -14 25 -15 6 39 -8 23 -15 65 -15 93 l0 51 28 -27 c29 -28 49 -36
35 -14 -4 6 -10 67 -13 135 -4 99 -2 122 9 122 9 0 11 6 6 18 -5 9 -17 44 -27
77 -10 33 -28 80 -39 104 -18 40 -19 45 -4 67 9 15 13 34 9 49 -6 24 -66 85
-84 85 -5 0 -24 -13 -43 -29z m-133 -147 c18 -17 21 -34 7 -34 -5 0 -16 -3
-24 -6 -10 -3 -18 2 -22 15 -3 12 -13 21 -21 21 -8 0 -12 5 -9 10 9 15 52 12
69 -6z m-318 -105 c-51 -60 -21 -109 67 -109 53 0 115 28 100 45 -5 4 -3 5 4
1 7 -3 27 0 45 9 18 8 24 13 13 10 -15 -5 -17 -3 -9 5 14 14 76 9 81 -6 2 -5
-11 -17 -29 -26 -18 -9 -61 -39 -96 -67 -125 -101 -250 -92 -283 20 -10 31 -9
43 7 76 19 38 70 73 107 73 17 0 16 -4 -7 -31z m294 -103 c0 -15 -36 -36 -61
-36 -35 0 -38 13 -6 28 22 11 67 16 67 8z"/>
<path d="M2143 4583 c-8 -3 -13 -23 -13 -53 0 -27 -5 -61 -11 -77 -10 -26 -12
-27 -23 -10 -7 9 -17 17 -22 17 -5 0 -20 9 -34 20 -24 19 -90 28 -90 13 1 -5
7 -19 15 -33 8 -14 14 -43 15 -65 0 -34 5 -43 33 -59 21 -12 27 -20 18 -24 -8
-2 -18 3 -23 12 -12 21 -42 21 -59 -1 -8 -9 -26 -21 -41 -27 -30 -13 -28 -20
23 -58 25 -18 43 -24 62 -21 15 3 27 1 27 -5 0 -6 -10 -12 -22 -14 -18 -2 -24
-12 -29 -41 -3 -21 -15 -51 -27 -66 -11 -16 -18 -31 -15 -35 12 -11 59 -6 79
9 10 8 27 15 37 15 9 0 23 11 29 25 7 15 18 24 27 23 12 -3 16 -16 15 -57 -2
-51 -1 -52 22 -47 22 6 24 3 24 -29 0 -38 2 -40 30 -25 17 9 20 5 26 -35 3
-25 9 -45 13 -45 10 0 62 48 126 117 l57 62 -45 44 c-59 58 -111 139 -133 205
-15 49 -15 54 0 71 22 24 21 31 -19 115 -34 73 -48 87 -72 79z m53 -62 c19
-44 13 -57 -25 -63 l-31 -5 0 57 c0 31 3 60 7 63 10 11 33 -13 49 -52z m-166
-46 c15 -18 13 -21 -21 -30 -21 -5 -27 -2 -37 19 -11 25 -10 26 17 26 16 0 34
-7 41 -15z m100 -102 c0 -7 -6 -13 -14 -13 -17 0 -25 18 -18 43 4 17 5 17 18
0 7 -10 14 -24 14 -30z m-180 -98 c0 -28 -3 -30 -32 -14 -21 11 -21 12 -3 25
27 20 35 17 35 -11z m52 -197 c-14 -17 -68 -26 -60 -10 2 4 12 24 23 44 l19
38 16 -28 c16 -24 16 -29 2 -44z"/>
<path d="M3279 4570 c-9 -5 -22 -23 -29 -39 -12 -29 -14 -30 -63 -24 -29 3
-60 13 -69 21 -17 14 -18 12 -18 -24 0 -59 18 -111 46 -133 21 -17 23 -22 13
-39 -10 -16 -9 -29 10 -72 18 -43 20 -57 12 -82 -14 -40 -15 -38 14 -38 46 0
65 32 65 111 0 61 2 70 17 67 26 -5 45 -82 37 -148 -6 -59 -24 -106 -111 -293
-54 -115 -55 -121 -49 -181 l6 -61 -35 -19 c-79 -43 -98 -136 -45 -219 17 -26
30 -51 30 -56 0 -5 20 -39 45 -75 25 -37 45 -72 45 -76 0 -10 -33 -30 -48 -30
-5 0 -12 15 -15 34 -3 19 -33 71 -70 122 -106 145 -112 161 -113 289 l-1 110
-37 30 -37 30 -32 -20 c-56 -33 -121 -62 -155 -68 -30 -6 -32 -5 -21 14 16 31
6 33 -58 9 -32 -12 -88 -24 -125 -27 -72 -6 -79 -2 -57 39 6 11 9 21 7 23 -2
2 -30 -3 -63 -11 -33 -7 -81 -14 -108 -14 -38 0 -58 -7 -98 -35 -48 -33 -104
-55 -141 -55 -22 0 -23 9 -3 37 15 21 11 53 -6 53 -5 0 -15 15 -23 34 -13 32
-41 56 -65 56 -6 0 -11 -20 -11 -45 0 -25 -5 -54 -12 -65 -10 -16 -9 -23 10
-43 23 -25 29 -46 12 -48 -31 -5 -35 -1 -40 36 -5 39 -6 40 -45 43 -22 2 -58
-3 -80 -10 -42 -14 -59 -38 -26 -38 23 0 40 -26 38 -55 -2 -15 5 -21 26 -23
19 -2 27 -9 27 -23 0 -22 0 -22 -34 -9 -22 8 -26 7 -26 -10 0 -23 -28 -40 -64
-40 -33 0 -33 -12 2 -51 25 -28 35 -32 85 -33 52 -1 58 1 64 22 3 12 11 22 19
22 17 0 17 -5 2 -33 -7 -12 -13 -44 -13 -72 0 -27 -4 -60 -8 -72 -19 -51 69
-8 123 60 38 48 40 51 23 69 -14 16 -15 20 -2 33 8 7 26 17 42 20 23 6 27 4
27 -13 0 -12 -4 -24 -10 -27 -5 -3 -10 -10 -10 -16 0 -20 23 -6 69 43 27 29
53 49 57 45 4 -4 -5 -21 -21 -37 -22 -23 -25 -30 -12 -30 19 0 67 21 67 29 0
4 14 23 31 44 31 37 32 38 46 17 8 -11 32 -29 54 -40 l40 -21 -16 37 c-14 34
-14 37 8 55 12 11 41 29 64 39 43 19 43 19 54 -2 28 -51 96 -111 180 -155 49
-25 99 -57 111 -70 l22 -23 -50 6 c-27 4 -110 24 -184 45 -150 43 -199 47
-249 21 -49 -24 -69 -56 -88 -140 -21 -87 -40 -105 -82 -75 -19 15 -27 30 -29
61 -4 48 -14 53 -38 17 -24 -37 -29 -97 -11 -132 28 -54 120 -81 158 -47 16
15 19 13 44 -25 44 -65 22 -127 -69 -193 l-41 -30 -5 54 c-4 43 -9 54 -25 57
-11 2 -26 12 -33 22 -8 12 -25 19 -47 19 -41 0 -49 -11 -30 -36 19 -25 19 -48
0 -64 -12 -10 -10 -17 17 -51 32 -39 32 -64 0 -41 -32 23 -44 25 -83 12 -40
-13 -89 -60 -89 -84 0 -8 12 -11 33 -8 28 3 38 -2 60 -27 30 -36 34 -37 59
-14 10 9 21 13 25 9 4 -4 -3 -15 -16 -25 -20 -15 -23 -23 -16 -47 5 -16 7 -37
6 -47 -1 -10 3 -34 9 -53 l12 -36 18 29 c10 16 31 39 46 51 24 17 29 28 29 64
0 37 3 43 22 46 22 3 22 1 17 -42 -5 -37 -3 -47 10 -52 11 -4 16 -19 16 -50 0
-47 8 -54 32 -26 45 51 59 117 36 168 -11 23 -10 28 7 40 30 23 65 18 65 -8 0
-24 66 -128 81 -128 15 0 10 63 -6 84 -19 25 -19 60 -2 75 10 8 14 7 13 -7 0
-75 11 -95 56 -97 18 -1 43 -5 56 -9 33 -11 28 11 -13 48 -29 27 -35 39 -34
72 l1 39 12 -40 c12 -41 58 -75 99 -75 25 0 21 27 -6 45 -13 8 -29 27 -36 41
-14 31 -5 46 38 64 61 25 92 151 50 204 -28 35 -53 35 -45 0 16 -64 17 -80 2
-99 -14 -18 -15 -18 -16 -2 0 9 -13 42 -30 73 -68 127 -53 158 78 167 49 4
104 13 123 20 19 8 46 17 61 21 l26 6 -29 -53 c-16 -29 -40 -85 -55 -123 -23
-60 -25 -79 -21 -144 4 -41 12 -93 20 -114 8 -21 12 -47 9 -58 -4 -16 -11 -18
-43 -13 -35 6 -39 4 -39 -14 0 -38 66 -64 115 -45 20 8 45 56 45 89 l0 25 105
0 c58 0 105 -2 105 -4 0 -31 -95 -216 -111 -216 -4 0 -9 15 -11 33 -3 29 -7
33 -45 41 -23 5 -58 5 -78 2 l-36 -7 26 -30 c14 -18 25 -43 25 -60 0 -19 6
-31 18 -35 30 -9 46 -20 50 -34 4 -10 -4 -11 -31 -6 -33 6 -37 4 -43 -19 -3
-14 -15 -42 -25 -62 -18 -36 -17 -74 4 -100 14 -19 25 -16 32 7 4 12 24 28 46
37 31 12 41 22 46 44 5 28 19 46 29 36 2 -2 -2 -16 -10 -32 -14 -26 -12 -30
21 -76 36 -51 59 -69 88 -69 12 0 15 6 10 21 -4 12 -7 49 -7 83 0 41 -5 67
-16 79 -17 19 -11 32 13 24 9 -4 15 -19 15 -37 0 -23 6 -33 23 -39 33 -13 50
-37 42 -61 -9 -28 11 -25 30 4 12 18 15 44 13 102 -3 72 -5 79 -26 84 -30 7
-26 19 15 47 l32 22 16 -25 c8 -13 21 -24 27 -24 6 0 20 -7 30 -17 17 -15 18
-14 18 17 0 19 -8 43 -19 54 -10 12 -22 32 -26 46 -7 23 -6 23 31 -9 21 -19
44 -45 50 -59 l11 -25 16 24 c15 23 14 28 -14 85 -18 35 -29 72 -27 85 4 23 5
23 17 -6 18 -44 40 -64 78 -71 28 -5 39 -2 60 17 30 29 63 90 63 119 0 19 -5
17 -47 -20 -26 -22 -54 -39 -62 -38 -25 5 -40 64 -29 112 5 23 8 65 6 94 -3
28 -3 52 -1 52 19 0 43 -25 48 -50 9 -42 25 -27 25 24 0 49 -27 92 -67 107
-29 11 -72 1 -187 -42 -90 -34 -96 -31 -96 38 0 47 16 68 59 78 17 3 48 24 70
46 45 46 55 83 56 209 l0 75 56 30 c78 42 97 57 109 90 12 31 6 74 -18 120
-15 30 -23 56 -44 145 -18 78 -30 80 -45 8 -15 -76 -35 -105 -94 -136 l-44
-23 -3 58 c-4 75 29 174 96 292 52 89 66 127 77 198 6 36 1 55 -34 131 -45 97
-48 114 -27 131 16 14 43 6 74 -22 19 -18 22 -19 22 -3 0 27 -48 113 -72 130
-25 18 -55 20 -79 6z m-1312 -792 c30 -28 29 -44 -2 -50 -31 -6 -35 -2 -35 39
0 39 6 41 37 11z m1411 -114 c-15 -32 -48 -57 -100 -79 -36 -15 -38 -14 -38 5
0 13 15 27 48 44 26 13 58 36 72 51 28 30 38 19 18 -21z m-1568 9 c0 -5 -7
-16 -15 -27 -13 -17 -15 -17 -36 -2 -17 11 -19 16 -8 20 8 2 21 7 29 9 23 8
30 8 30 0z m1620 -74 c-5 -18 -17 -41 -27 -52 -25 -28 -104 -77 -114 -71 -20
12 -6 32 41 63 27 17 60 45 72 61 30 38 39 37 28 -1z m-240 -30 c0 -6 -11 -20
-25 -31 -14 -11 -36 -39 -48 -61 l-22 -42 -3 38 c-4 42 8 61 53 89 35 21 45
22 45 7z m-1416 -132 c7 -37 6 -38 -16 -32 -13 4 -33 19 -45 33 l-23 27 38 5
c20 3 38 6 38 5 1 0 4 -17 8 -38z m1446 19 c0 -8 -12 -27 -27 -43 -16 -16 -33
-38 -40 -48 -11 -18 -12 -17 -12 13 -1 24 7 42 28 63 32 32 51 37 51 15z m11
-171 l-8 -70 -16 37 c-21 47 -21 77 -1 107 25 35 34 8 25 -74z m-1311 48 l33
-16 -37 -34 c-21 -19 -40 -33 -42 -31 -4 5 6 98 11 98 1 0 17 -7 35 -17z m175
-372 c3 -6 -3 -15 -14 -20 -26 -15 -29 -14 -41 9 -10 18 -8 20 19 20 16 0 32
-4 36 -9z m-143 -211 c-4 -27 -8 -30 -38 -30 -31 0 -34 2 -24 20 24 45 68 52
62 10z m941 -166 c3 -3 -8 -18 -25 -32 -21 -18 -33 -23 -36 -14 -2 7 -10 18
-17 26 -8 7 -11 16 -8 20 8 8 78 8 86 0z m-832 -24 c18 -10 18 -12 2 -36 -18
-28 -33 -18 -33 24 0 25 3 26 31 12z m188 -29 c-6 -17 -17 -35 -25 -42 -12
-10 -14 -5 -14 30 0 37 2 41 24 41 23 0 24 -2 15 -29z m598 -213 c14 -16 13
-20 -10 -47 l-25 -30 -11 30 c-8 24 -7 39 6 67 13 31 17 34 21 17 2 -11 11
-28 19 -37z m317 -43 c-7 -18 -8 -18 -14 1 -9 23 -1 39 11 27 6 -6 6 -18 3
-28z m-112 -50 c6 -29 -7 -32 -41 -9 -18 13 -20 18 -10 25 26 16 47 10 51 -16z"/>
<path d="M5090 3100 c-25 -25 -26 -52 -2 -73 38 -34 82 -12 82 42 0 18 -34 51
-52 51 -5 0 -17 -9 -28 -20z"/>
</g>
</svg>
